<svg xmlns="http://www.w3.org/2000/svg" width="48" height="48" fill="none"><g fill="#00A0C1" clip-path="url(#a)"><path d="M29.142 13.624H41.14v3.446H29.142v-3.446ZM29.142 22.238H41.14v3.445H29.142v-3.445ZM29.142 30.85H41.14v3.446H29.142V30.85Z"/><path d="M44.568 5.011H3.432c-.909.001-1.78.364-2.423 1.01A3.458 3.458 0 0 0 .004 8.456v31.008c.001.914.363 1.79 1.005 2.436a3.423 3.423 0 0 0 2.423 1.01h41.136a3.425 3.425 0 0 0 2.422-1.011 3.459 3.459 0 0 0 1.006-2.435V8.456c-.001-.913-.363-1.789-1.005-2.435a3.423 3.423 0 0 0-2.423-1.01ZM3.432 8.456h18.854v31.008H3.432V8.456Zm22.282 31.008V8.456h18.854l.003 31.008H25.714Z"/></g><defs><clipPath id="a"><path fill="#00A0C1" d="M0 5h48v37.92H0z"/></clipPath></defs></svg>